<svg width="235" height="55" viewBox="0 0 235 55" fill="none" xmlns="http://www.w3.org/2000/svg">
<path d="M1.988 30V10.26H6.328V18.184H15.512V10.26H19.852V30H15.512V21.796H6.328V30H1.988ZM21.5677 30L30.6397 10.26H34.1397L43.2117 30H38.8437L36.9957 25.716H27.7837L25.9637 30H21.5677ZM32.3477 14.88L29.2397 22.328H35.5677L32.4037 14.88H32.3477ZM44.9177 30V10.26H49.1737V26.416H55.9217V10.26H60.1777V26.416H66.8977V10.26H71.1817V30H44.9177ZM75.1599 30V10.26H79.1919V22.944L89.0479 10.26H92.2679V30H88.2359V17.26L78.3519 30H75.1599ZM121.003 30.308C119.286 30.308 117.764 29.9627 116.439 29.272C115.132 28.5627 114.068 27.5733 113.247 26.304C112.426 25.0347 111.903 23.532 111.679 21.796H108.375V30H104.035V10.26H108.375V18.212H111.707C111.95 16.5133 112.482 15.048 113.303 13.816C114.124 12.584 115.188 11.632 116.495 10.96C117.802 10.288 119.304 9.952 121.003 9.952C122.926 9.952 124.596 10.372 126.015 11.212C127.452 12.052 128.563 13.2373 129.347 14.768C130.131 16.28 130.523 18.0627 130.523 20.116C130.523 22.1693 130.122 23.9613 129.319 25.492C128.535 27.0227 127.434 28.208 126.015 29.048C124.596 29.888 122.926 30.308 121.003 30.308ZM121.031 26.612C122.599 26.612 123.812 26.0427 124.671 24.904C125.548 23.7467 125.987 22.1507 125.987 20.116C125.987 18.0627 125.548 16.476 124.671 15.356C123.812 14.2173 122.599 13.648 121.031 13.648C119.463 13.648 118.24 14.2173 117.363 15.356C116.504 16.476 116.075 18.0627 116.075 20.116C116.075 22.1507 116.504 23.7467 117.363 24.904C118.24 26.0427 119.463 26.612 121.031 26.612ZM133.894 30V10.26H142.91C145.113 10.26 146.812 10.82 148.006 11.94C149.201 13.0413 149.798 14.5813 149.798 16.56C149.798 18.5387 149.201 20.088 148.006 21.208C146.812 22.328 145.113 22.888 142.91 22.888H138.234V30H133.894ZM138.234 19.528H142.182C144.478 19.528 145.626 18.5387 145.626 16.56C145.626 14.6187 144.478 13.648 142.182 13.648H138.234V19.528ZM152.488 30V10.26H156.52V22.944L166.376 10.26H169.596V30H165.564V17.26L155.68 30H152.488ZM183.146 30.308C181.018 30.308 179.198 29.888 177.686 29.048C176.174 28.208 175.007 27.032 174.186 25.52C173.383 23.9893 172.982 22.188 172.982 20.116C172.982 18.0627 173.383 16.28 174.186 14.768C175.007 13.2373 176.174 12.052 177.686 11.212C179.198 10.372 181.018 9.952 183.146 9.952C184.453 9.952 185.703 10.1573 186.898 10.568C188.093 10.9787 189.073 11.5387 189.838 12.248L188.494 15.692C187.654 15.0387 186.805 14.5627 185.946 14.264C185.106 13.9467 184.219 13.788 183.286 13.788C181.401 13.788 179.973 14.3387 179.002 15.44C178.05 16.5227 177.574 18.0813 177.574 20.116C177.574 22.1507 178.05 23.7187 179.002 24.82C179.973 25.9213 181.401 26.472 183.286 26.472C184.219 26.472 185.106 26.3227 185.946 26.024C186.805 25.7067 187.654 25.2213 188.494 24.568L189.838 28.012C189.073 28.7027 188.093 29.2627 186.898 29.692C185.703 30.1027 184.453 30.308 183.146 30.308ZM197.114 30V13.844H190.59V10.26H207.978V13.844H201.454V30H197.114ZM210.101 30V10.26H214.441V18.212H218.613C220.723 18.212 222.384 18.716 223.597 19.724C224.829 20.732 225.445 22.188 225.445 24.092C225.445 25.996 224.829 27.4613 223.597 28.488C222.384 29.496 220.723 30 218.613 30H210.101ZM227.769 30V10.26H232.137V30H227.769ZM214.441 26.64H218.025C219.145 26.64 219.967 26.4347 220.489 26.024C221.012 25.6133 221.273 24.9693 221.273 24.092C221.273 23.252 221.012 22.6267 220.489 22.216C219.967 21.7867 219.145 21.572 218.025 21.572H214.441V26.64Z" fill="#222222"/>
<rect x="92.5" y="52" width="50" height="3" fill="#4F8FF0"/>
</svg>
