<svg width="720" height="55" viewBox="0 0 720 55" fill="none" xmlns="http://www.w3.org/2000/svg">
<path d="M18.956 30.308C17.2387 30.308 15.7173 29.9627 14.392 29.272C13.0853 28.5627 12.0213 27.5733 11.2 26.304C10.3787 25.0347 9.856 23.532 9.632 21.796H6.328V30H1.988V10.26H6.328V18.212H9.66C9.90267 16.5133 10.4347 15.048 11.256 13.816C12.0773 12.584 13.1413 11.632 14.448 10.96C15.7547 10.288 17.2573 9.952 18.956 9.952C20.8787 9.952 22.5493 10.372 23.968 11.212C25.4053 12.052 26.516 13.2373 27.3 14.768C28.084 16.28 28.476 18.0627 28.476 20.116C28.476 22.1693 28.0747 23.9613 27.272 25.492C26.488 27.0227 25.3867 28.208 23.968 29.048C22.5493 29.888 20.8787 30.308 18.956 30.308ZM18.984 26.612C20.552 26.612 21.7653 26.0427 22.624 24.904C23.5013 23.7467 23.94 22.1507 23.94 20.116C23.94 18.0627 23.5013 16.476 22.624 15.356C21.7653 14.2173 20.552 13.648 18.984 13.648C17.416 13.648 16.1933 14.2173 15.316 15.356C14.4573 16.476 14.028 18.0627 14.028 20.116C14.028 22.1507 14.4573 23.7467 15.316 24.904C16.1933 26.0427 17.416 26.612 18.984 26.612ZM31.8474 30V10.26H40.8634C43.066 10.26 44.7647 10.82 45.9594 11.94C47.154 13.0413 47.7514 14.5813 47.7514 16.56C47.7514 18.5387 47.154 20.088 45.9594 21.208C44.7647 22.328 43.066 22.888 40.8634 22.888H36.1874V30H31.8474ZM36.1874 19.528H40.1354C42.4314 19.528 43.5794 18.5387 43.5794 16.56C43.5794 14.6187 42.4314 13.648 40.1354 13.648H36.1874V19.528ZM50.4411 30V10.26H54.4731V22.944L64.3291 10.26H67.5491V30H63.5171V17.26L53.6331 30H50.4411ZM69.8712 34.76V26.584H71.8592C73.5205 24.512 74.3512 20.8067 74.3512 15.468V10.26H88.8272V26.584H91.6272V34.76H87.8192V30H73.7072V34.76H69.8712ZM76.2272 26.584H84.4592V13.648H78.3552V15.888C78.3552 18.3893 78.1778 20.5173 77.8232 22.272C77.4685 24.008 76.9365 25.4453 76.2272 26.584ZM94.2185 30V10.26H98.2505V22.944L108.106 10.26H111.326V30H107.294V17.26L97.4105 30H94.2185ZM126.837 30V22.664C126.37 22.888 125.773 23.0653 125.045 23.196C124.317 23.308 123.589 23.364 122.861 23.364C120.247 23.364 118.231 22.6733 116.812 21.292C115.413 19.9107 114.713 17.8013 114.713 14.964V10.26H119.053V14.796C119.053 16.532 119.417 17.7827 120.145 18.548C120.873 19.3133 121.946 19.696 123.365 19.696C123.943 19.696 124.541 19.64 125.157 19.528C125.773 19.416 126.333 19.2293 126.837 18.968V10.26H131.177V30H126.837ZM135.152 30V10.26H148.676V13.648H139.296V18.268H148.06V21.684H139.296V26.612H148.676V30H135.152ZM161.681 30.308C159.553 30.308 157.733 29.888 156.221 29.048C154.709 28.208 153.543 27.032 152.721 25.52C151.919 23.9893 151.517 22.188 151.517 20.116C151.517 18.0627 151.919 16.28 152.721 14.768C153.543 13.2373 154.709 12.052 156.221 11.212C157.733 10.372 159.553 9.952 161.681 9.952C162.988 9.952 164.239 10.1573 165.433 10.568C166.628 10.9787 167.608 11.5387 168.373 12.248L167.029 15.692C166.189 15.0387 165.34 14.5627 164.481 14.264C163.641 13.9467 162.755 13.788 161.821 13.788C159.936 13.788 158.508 14.3387 157.537 15.44C156.585 16.5227 156.109 18.0813 156.109 20.116C156.109 22.1507 156.585 23.7187 157.537 24.82C158.508 25.9213 159.936 26.472 161.821 26.472C162.755 26.472 163.641 26.3227 164.481 26.024C165.34 25.7067 166.189 25.2213 167.029 24.568L168.373 28.012C167.608 28.7027 166.628 29.2627 165.433 29.692C164.239 30.1027 162.988 30.308 161.681 30.308ZM171.218 30V10.26H175.558V18.408H177.938L182.95 10.26H187.71L181.914 19.22C183.277 19.9107 184.388 21.1333 185.246 22.888L188.69 30H183.986L181.41 24.4C181 23.5227 180.505 22.9067 179.926 22.552C179.366 22.1787 178.648 21.992 177.77 21.992H175.558V30H171.218ZM188.064 30L197.136 10.26H200.636L209.708 30H205.34L203.492 25.716H194.28L192.46 30H188.064ZM198.844 14.88L195.736 22.328H202.064L198.9 14.88H198.844ZM210.126 30L213.318 24.148C213.915 23.0467 214.68 22.3467 215.614 22.048C214.158 21.6933 213.038 21.0213 212.254 20.032C211.488 19.0427 211.106 17.8013 211.106 16.308C211.106 14.404 211.703 12.92 212.898 11.856C214.092 10.792 215.791 10.26 217.994 10.26H227.038V30H222.67V22.356H220.822C220.262 22.356 219.776 22.4587 219.366 22.664C218.974 22.8507 218.638 23.196 218.358 23.7L214.914 30H210.126ZM218.75 19.22H222.67V13.648H218.75C216.435 13.648 215.278 14.572 215.278 16.42C215.278 18.2867 216.435 19.22 218.75 19.22ZM238.785 30V10.26H243.125V18.408H245.505L250.517 10.26H255.277L249.481 19.22C250.844 19.9107 251.954 21.1333 252.813 22.888L256.257 30H251.553L248.977 24.4C248.566 23.5227 248.072 22.9067 247.493 22.552C246.933 22.1787 246.214 21.992 245.337 21.992H243.125V30H238.785ZM266.945 30.308C265.003 30.308 263.295 29.888 261.821 29.048C260.365 28.1893 259.226 27.004 258.405 25.492C257.602 23.9613 257.201 22.1693 257.201 20.116C257.201 18.0627 257.602 16.28 258.405 14.768C259.226 13.2373 260.365 12.052 261.821 11.212C263.277 10.372 264.985 9.952 266.945 9.952C268.905 9.952 270.613 10.372 272.069 11.212C273.543 12.052 274.682 13.2373 275.485 14.768C276.306 16.28 276.717 18.0533 276.717 20.088C276.717 22.1413 276.306 23.9333 275.485 25.464C274.682 26.9947 273.543 28.1893 272.069 29.048C270.613 29.888 268.905 30.308 266.945 30.308ZM266.945 26.612C268.587 26.612 269.866 26.0427 270.781 24.904C271.714 23.7467 272.181 22.1507 272.181 20.116C272.181 18.0627 271.723 16.476 270.809 15.356C269.894 14.2173 268.606 13.648 266.945 13.648C265.321 13.648 264.042 14.2173 263.109 15.356C262.194 16.476 261.737 18.0627 261.737 20.116C261.737 22.1507 262.194 23.7467 263.109 24.904C264.042 26.0427 265.321 26.612 266.945 26.612ZM280.13 30V10.26H283.742L290.406 22.384L297.042 10.26H300.598V30H296.65V17.96L291.554 27.032H289.118L284.05 18.044V30H280.13ZM304.601 30V10.26H322.269V30H317.929V13.844H308.941V30H304.601ZM323.99 30L333.062 10.26H336.562L345.634 30H341.266L339.418 25.716H330.206L328.386 30H323.99ZM334.77 14.88L331.662 22.328H337.99L334.826 14.88H334.77ZM347.34 30V10.26H351.68V18.184H360.864V10.26H365.204V30H360.864V21.796H351.68V30H347.34ZM369.187 30V10.26H373.219V22.944L383.075 10.26H386.295V30H382.263V17.26L372.379 30H369.187ZM388.981 30L392.173 24.148C392.771 23.0467 393.536 22.3467 394.469 22.048C393.013 21.6933 391.893 21.0213 391.109 20.032C390.344 19.0427 389.961 17.8013 389.961 16.308C389.961 14.404 390.559 12.92 391.753 11.856C392.948 10.792 394.647 10.26 396.849 10.26H405.893V30H401.525V22.356H399.677C399.117 22.356 398.632 22.4587 398.221 22.664C397.829 22.8507 397.493 23.196 397.213 23.7L393.769 30H388.981ZM397.605 19.22H401.525V13.648H397.605C395.291 13.648 394.133 14.572 394.133 16.42C394.133 18.2867 395.291 19.22 397.605 19.22Z" fill="#222222"/>
<path d="M417.444 30V10.26H435.672V30H430.52V14.46H422.596V30H417.444ZM439.265 30V10.26H448.757C450.997 10.26 452.723 10.8387 453.937 11.996C455.169 13.1347 455.785 14.712 455.785 16.728C455.785 18.744 455.169 20.3307 453.937 21.488C452.723 22.6267 450.997 23.196 448.757 23.196H444.417V30H439.265ZM444.417 19.248H447.861C449.877 19.248 450.885 18.408 450.885 16.728C450.885 15.048 449.877 14.208 447.861 14.208H444.417V19.248ZM453.701 30L462.941 10.26H467.001L476.241 30H471.089L469.381 25.996H460.561L458.853 30H453.701ZM464.929 15.636L462.241 22.048H467.673L464.985 15.636H464.929ZM477.437 30V10.26H486.957C489.085 10.26 490.727 10.7267 491.885 11.66C493.061 12.5747 493.649 13.8067 493.649 15.356C493.649 16.3827 493.387 17.2787 492.865 18.044C492.361 18.8093 491.651 19.3787 490.737 19.752C491.838 20.088 492.687 20.6573 493.285 21.46C493.882 22.244 494.181 23.224 494.181 24.4C494.181 26.136 493.555 27.508 492.305 28.516C491.073 29.5053 489.383 30 487.237 30H477.437ZM482.365 18.1H486.033C486.966 18.1 487.647 17.932 488.077 17.596C488.525 17.26 488.749 16.7467 488.749 16.056C488.749 15.3653 488.525 14.8613 488.077 14.544C487.647 14.208 486.966 14.04 486.033 14.04H482.365V18.1ZM482.365 26.22H486.537C487.489 26.22 488.179 26.0427 488.609 25.688C489.057 25.3147 489.281 24.764 489.281 24.036C489.281 23.308 489.057 22.7667 488.609 22.412C488.179 22.0573 487.489 21.88 486.537 21.88H482.365V26.22ZM506.617 30.308C504.619 30.308 502.865 29.888 501.353 29.048C499.859 28.1893 498.693 26.9947 497.853 25.464C497.013 23.9333 496.593 22.1507 496.593 20.116C496.593 18.0627 497.003 16.28 497.825 14.768C498.665 13.2373 499.841 12.052 501.353 11.212C502.865 10.372 504.619 9.952 506.617 9.952C508.614 9.952 510.359 10.372 511.853 11.212C513.365 12.052 514.541 13.2373 515.381 14.768C516.221 16.28 516.641 18.0627 516.641 20.116C516.641 22.1507 516.221 23.9333 515.381 25.464C514.541 26.9947 513.365 28.1893 511.853 29.048C510.359 29.888 508.614 30.308 506.617 30.308ZM506.617 25.996C508.073 25.996 509.211 25.4827 510.033 24.456C510.873 23.4107 511.293 21.964 511.293 20.116C511.293 18.268 510.882 16.8307 510.061 15.804C509.239 14.7773 508.091 14.264 506.617 14.264C505.142 14.264 503.994 14.7773 503.173 15.804C502.351 16.8307 501.941 18.268 501.941 20.116C501.941 21.964 502.351 23.4107 503.173 24.456C503.994 25.4827 505.142 25.996 506.617 25.996ZM526.123 30.308C524.499 30.308 523.061 30.1213 521.811 29.748C520.56 29.3747 519.431 28.8427 518.423 28.152L519.851 24.372C520.579 24.9133 521.437 25.3333 522.427 25.632C523.416 25.9307 524.489 26.08 525.647 26.08C526.916 26.08 527.849 25.9027 528.447 25.548C529.044 25.1747 529.343 24.6053 529.343 23.84C529.343 23.2053 529.119 22.7387 528.671 22.44C528.241 22.1227 527.551 21.964 526.599 21.964H521.839V18.016H526.067C527.019 18.016 527.709 17.8667 528.139 17.568C528.568 17.2693 528.783 16.8027 528.783 16.168C528.783 15.5893 528.54 15.1133 528.055 14.74C527.588 14.3667 526.813 14.18 525.731 14.18C524.723 14.18 523.733 14.3293 522.763 14.628C521.792 14.908 520.952 15.3187 520.243 15.86L518.787 12.08C519.683 11.4267 520.784 10.9133 522.091 10.54C523.397 10.148 524.825 9.952 526.375 9.952C528.876 9.952 530.743 10.4653 531.975 11.492C533.207 12.5187 533.823 13.8067 533.823 15.356C533.823 16.3827 533.561 17.2787 533.039 18.044C532.535 18.8093 531.825 19.3787 530.911 19.752C532.012 20.088 532.852 20.6573 533.431 21.46C534.028 22.244 534.327 23.224 534.327 24.4C534.327 26.136 533.655 27.5547 532.311 28.656C530.967 29.7573 528.904 30.308 526.123 30.308ZM534.611 30L543.851 10.26H547.911L557.151 30H551.999L550.291 25.996H541.471L539.763 30H534.611ZM545.839 15.636L543.151 22.048H548.583L545.895 15.636H545.839ZM583.603 34.9V30H558.347V10.26H563.415V25.8H569.295V10.26H574.335V25.8H580.215V10.26H585.283V25.8H588.083V34.9H583.603ZM590.503 30V10.26H595.291V21.684L604.335 10.26H608.115V30H603.355V18.548L594.283 30H590.503ZM616.37 30V14.46H610.098V10.26H627.794V14.46H621.522V30H616.37ZM629.741 30V10.26H634.893V17.876H643.041V10.26H648.165V30H643.041V22.104H634.893V30H629.741ZM651.753 30V10.26H656.541V21.684L665.585 10.26H669.365V30H664.605V18.548L655.533 30H651.753ZM672.972 30V10.26H678.124V18.156H680.084L684.788 10.26H690.36L684.704 19.192C685.973 19.9013 687.018 21.096 687.84 22.776L691.34 30H685.796L683.276 24.456C682.921 23.6907 682.482 23.1493 681.96 22.832C681.437 22.5147 680.765 22.356 679.944 22.356H678.124V30H672.972Z" fill="#4F8FF0"/>
<rect y="52" width="50" height="3" fill="#4F8FF0"/>
</svg>
